<?xml version="1.0" encoding="UTF-8" standalone="no"?>
<svg
   xmlns:dc="http://purl.org/dc/elements/1.1/"
   xmlns:cc="http://creativecommons.org/ns#"
   xmlns:rdf="http://www.w3.org/1999/02/22-rdf-syntax-ns#"
   xmlns:svg="http://www.w3.org/2000/svg"
   xmlns="http://www.w3.org/2000/svg"
   xmlns:sodipodi="http://sodipodi.sourceforge.net/DTD/sodipodi-0.dtd"
   xmlns:inkscape="http://www.inkscape.org/namespaces/inkscape"
   xml:space="preserve"
   version="1.1"
   overflow="visible"
   viewBox="0 0 65.533045 79.194097"
   id="svg901"
   sodipodi:docname="metaclip_logo.svg"
   width="65.533043"
   height="79.194099"
   style="overflow:visible"
   inkscape:version="0.48.4 r9939"><metadata
     id="metadata907"><rdf:RDF><cc:Work
         rdf:about=""><dc:format>image/svg+xml</dc:format><dc:type
           rdf:resource="http://purl.org/dc/dcmitype/StillImage" /><dc:title></dc:title></cc:Work></rdf:RDF></metadata><defs
     id="defs905" /><sodipodi:namedview
     pagecolor="#ffffff"
     bordercolor="#666666"
     borderopacity="1"
     objecttolerance="10"
     gridtolerance="10"
     guidetolerance="10"
     inkscape:pageopacity="0"
     inkscape:pageshadow="2"
     inkscape:window-width="1615"
     inkscape:window-height="1026"
     id="namedview903"
     showgrid="false"
     fit-margin-top="0"
     fit-margin-left="0"
     fit-margin-right="0"
     fit-margin-bottom="0"
     inkscape:zoom="3.0472954"
     inkscape:cx="-39.619062"
     inkscape:cy="40.702206"
     inkscape:window-x="1115"
     inkscape:window-y="464"
     inkscape:window-maximized="1"
     inkscape:current-layer="g899"
     showguides="true"
     inkscape:guide-bbox="true" /><g
     id="g899"
     transform="matrix(0.69471516,0,0,0.77730247,-7.6739168e-5,3.9014508e-4)"><path
       style="fill:#ffffff"
       d="M 50.8125 0 C 46.226264 0.047546579 41.802112 2.8346553 39.5 7.6875 C 38.123075 10.582952 37.721358 13.744949 38.15625 16.75 L 38.03125 16.5 C 38.03125 16.5 38.760712 20.273127 30.875 25.75 C 22.990678 31.229982 19.4375 28.5 19.4375 28.5 L 19.6875 28.875 C 19.461718 28.718762 19.235508 28.575083 19 28.4375 C 12.693376 24.687793 4.8499164 27.349898 1.5 34.40625 C -1.848527 41.461824 0.5704602 50.217488 6.875 53.96875 C 11.575443 56.760043 17.095006 55.96972 21 52.46875 L 20.9375 52.65625 C 20.9375 52.65625 23.789832 50.030705 32.0625 55 C 38.592822 58.920714 39.563146 62.743272 39.6875 64.1875 C 39.5166 69.545446 42.015602 74.815975 46.53125 77.5 C 52.83579 81.250484 60.682723 78.554797 64.03125 71.5 C 67.382556 64.44598 64.962874 55.684098 58.65625 51.9375 C 58.214411 51.675549 57.765454 51.479462 57.3125 51.28125 L 57.65625 51.25 C 57.65625 51.25 54.752182 49.808269 54.5 39.4375 C 54.250597 29.065176 57.25 27.3125 57.25 27.3125 L 56.84375 27.3125 C 59.109216 26.012073 61.057832 23.961231 62.34375 21.25 C 65.694361 14.198312 63.272595 5.4372068 56.96875 1.6875 C 54.99793 0.51717405 52.897153 -0.021612082 50.8125 0 z M 51 2.3125 C 53.148586 2.3042839 55.241942 3.1128675 56.875 4.78125 L 56.8125 4.78125 C 55.17853 3.1116043 51.193715 3.3902799 47.71875 5.9375 C 48.149473 6.4481877 48.406933 7.1233485 48.4375 7.875 C 48.504887 9.5508641 47.372111 10.955074 45.875 11.03125 C 45.638797 11.04291 45.410504 11.022384 45.1875 10.96875 C 45.149291 10.975746 45.068094 10.975588 44.96875 10.9375 C 43.982949 10.567504 43.32648 11.374405 43.09375 11.71875 C 41.396474 15.323004 41.253363 19.079284 42.71875 21.125 C 39.425077 17.240338 39.603249 10.744309 43.25 6.28125 C 45.385989 3.6661617 48.237533 2.3230636 51 2.3125 z M 41.84375 26.1875 C 42.854691 26.138507 43.43507 26.342766 43.65625 26.4375 C 44.035564 26.725879 44.431089 27.004372 44.84375 27.25 C 45.628083 27.716381 46.430931 28.073249 47.25 28.34375 C 48.208707 29.365125 49.972845 32.28169 50.15625 39.90625 C 50.343823 47.58833 48.349734 50.545946 47.25 51.59375 C 46.117614 52.167399 45.04551 52.913319 44.09375 53.84375 C 43.048898 54.257275 40.065643 54.739444 33.78125 50.96875 C 26.975126 46.880139 25.960474 43.462762 25.8125 42.4375 C 25.909065 41.193816 25.845907 39.929787 25.65625 38.71875 L 25.6875 38.8125 C 25.6875 38.8125 25.149743 35.473302 32.9375 30.0625 C 37.293798 27.03685 40.158849 26.269155 41.84375 26.1875 z M 13.1875 29.53125 C 15.336268 29.523394 17.429442 30.330597 19.0625 32 L 19 32 C 17.36603 30.329577 13.379131 30.641057 9.90625 33.1875 C 10.335584 33.69741 10.593738 34.342099 10.625 35.09375 C 10.692387 36.768059 9.5603058 38.204297 8.0625 38.28125 C 7.8269916 38.29291 7.5980036 38.241134 7.375 38.1875 C 7.336096 38.192941 7.2542048 38.194338 7.15625 38.15625 C 6.1704492 37.786254 5.4834243 38.592378 5.25 38.9375 C 3.5683912 42.508484 3.4217265 46.22267 4.84375 48.28125 C 1.6089258 44.388625 1.8108861 37.969594 5.4375 33.53125 C 7.572707 30.915287 10.424798 29.541351 13.1875 29.53125 z M 53.21875 52.59375 C 55.367321 52.585772 57.461604 53.393777 59.09375 55.0625 L 59.03125 55.0625 C 57.395891 53.392854 53.411076 53.673084 49.9375 56.21875 C 50.366834 56.729438 50.625683 57.405376 50.65625 58.15625 C 50.723637 59.832114 49.590166 61.23477 48.09375 61.3125 C 47.858242 61.323382 47.597309 61.303634 47.375 61.25 C 47.335401 61.256218 47.286844 61.255283 47.1875 61.21875 C 46.201005 60.848754 45.514674 61.6541 45.28125 62 C 43.600287 65.56954 43.45203 69.285609 44.875 71.34375 C 41.640176 67.451715 41.842136 61.002343 45.46875 56.5625 C 47.603566 53.948286 50.456301 52.604008 53.21875 52.59375 z "
       transform="matrix(1.4394389,0,0,1.2865005,1.1046134e-4,-5.0510895e-4)"
       id="path881" /><g
       id="g885" /><g
       id="g891"><path
         d="M 7.632,62.845 C 7.586,62.798 7.539,62.743 7.491,62.697 c 0.03,0.031 0.059,0.069 0.095,0.102 z"
         id="path887"
         inkscape:connector-curvature="0"
         style="fill:#ffffff" /></g><g
       id="g897"><path
         d="m 65.256,92.504 c -0.047,-0.048 -0.094,-0.102 -0.141,-0.148 0.029,0.031 0.059,0.069 0.094,0.101 z"
         id="path893"
         inkscape:connector-curvature="0"
         style="fill:#ffffff" /></g></g></svg>